<?xml version="1.0" encoding="UTF-8"?> <svg xmlns="http://www.w3.org/2000/svg" width="1600" height="1e3" version="1.1" viewBox="0 0 1600 1e3"><defs><clipPath id="clipPath198"><path d="M 0,1817.608 H 3147.36 V 0 H 0 Z"></path></clipPath></defs><g transform="matrix(1.3333 0 0 -1.3333 -1316.5 1412.8)"><g transform="translate(13.675 -132.13)"><g clip-path="url(#clipPath198)"><g transform="translate(1136.9 834.34)"><path d="m0 0h121.4l6.437-70.179h89.23l-27.103 295.46h-123.38c-5.442-0.937-11.4-3.747-17.139-10.403l-199-285.06h100.59zm107.3 153.82 10.563-115.19h-90.905zm480.82-185.46c-16.81 0-31.039 8.579-25.778 29.693l22.45 88.783c8.18 29.334 28.797 35.473 53.847 35.473 1.704 0 85.414 0.199 87.188 0l10.631 44.122c-3.996-0.061-95.866 0-99.942 0-84.657 0-146.62-56.667-165.12-117.38-19.74-65.087 21.573-118.3 102-118.64 3.547 0 103.33 0 106.77 0.259l9.028 37.685c-2.491-0.359-98.527 0-101.08 0m-236.49 0c-16.74 0-31.119 8.579-25.758 29.693l22.37 88.783c8.261 29.334 28.837 35.473 53.857 35.473 1.804 0 85.544 0.199 87.208 0l10.601 44.122c-4.015-0.061-95.806 0-99.991 0-84.667 0-146.66-56.667-165.06-117.38-19.74-65.087 21.632-118.3 102.11-118.64 3.477 0 103.15 0 106.76 0.259l8.899 37.685c-2.462-0.359-98.458 0-101 0m369.51 30.013 44.312 167.39 94.641-0.278-48.716-176.57c-4.743-27.372 64.798-26.395 70.856-3.487l47.152 179.92 93.734-0.259-57.763-210.78c-63.523-36.091-273.87-59.586-244.22 44.063" fill="#b01e24"></path></g><g transform="translate(1074.1 622.99)"><path d="m0 0c0-3.601-0.621-6.9-1.86-9.9-1.241-3-2.96-5.58-5.16-7.741-2.201-2.159-4.841-3.839-7.92-5.04-3.081-1.199-6.42-1.799-10.02-1.799-4.721 0-8.561 0.419-11.52 1.259-2.96 0.841-5.52 1.94-7.68 3.301l2.88 7.68c1.599-0.96 3.559-1.841 5.88-2.64 2.319-0.801 5.16-1.2 8.52-1.2 4.8 0 8.58 1.398 11.34 4.2 2.76 2.799 4.14 6.559 4.14 11.279 0 3.679-1.1 6.721-3.3 9.121-2.201 2.4-5.901 4.638-11.1 6.719-3.44 1.36-6.3 2.9-8.58 4.62s-4.08 3.54-5.4 5.46-2.241 3.901-2.76 5.941c-0.521 2.04-0.78 4.059-0.78 6.059 0 3.12 0.54 6.079 1.62 8.881 1.08 2.799 2.619 5.259 4.62 7.38 1.999 2.118 4.44 3.799 7.32 5.04 2.88 1.239 6.12 1.859 9.72 1.859 3.84 0 7.159-0.419 9.96-1.259 2.8-0.84 5.119-1.902 6.96-3.18l-2.64-6.96c-1.44 0.879-3.281 1.739-5.52 2.58-2.241 0.84-4.761 1.26-7.56 1.26-4.4 0-7.781-1.32-10.14-3.96-2.36-2.641-3.54-6.161-3.54-10.561 0-2.16 0.36-4.019 1.08-5.58 0.72-1.559 1.72-2.921 3-4.08 1.279-1.16 2.739-2.179 4.38-3.059 1.639-0.881 3.42-1.68 5.34-2.401 4.08-1.6 7.339-3.359 9.78-5.279 2.44-1.92 4.32-3.921 5.64-6 1.32-2.081 2.199-4.141 2.64-6.181 0.439-2.04 0.66-3.98 0.66-5.819" fill="#b01e24"></path></g><g transform="translate(1122.6 599.95)"><path d="m0 0c-3.761-1.039-8.28-1.561-13.56-1.561-8.081 0-13.92 1.9-17.52 5.701-3.6 3.798-5.4 8.94-5.4 15.42v44.879h10.56v-45.332c0-3.848 1.039-7.036 3.12-9.56 2.079-2.526 5.359-3.787 9.84-3.787 2.56 0 4.759 0.219 6.6 0.66 1.839 0.44 3.519 1.102 5.04 1.985v56.034h10.56v-60.839c-2.4-1.362-5.481-2.562-9.24-3.6" fill="#595759"></path></g><g transform="translate(1184 632.53)"><path d="m0 0c0 4.089-0.319 7.798-0.957 11.124-0.637 3.326-1.674 6.133-3.106 8.419-1.435 2.285-3.327 4.05-5.676 5.293-2.349 1.241-5.237 1.863-8.66 1.863-1.992 0-3.705-0.161-5.138-0.481-1.434-0.321-2.788-0.761-4.063-1.322v-50.873c1.035-0.401 2.208-0.742 3.523-1.023 1.314-0.281 2.769-0.42 4.363-0.42 6.531 0 11.449 2.403 14.755 7.215 3.305 4.81 4.959 11.546 4.959 20.205m10.56 0.54c0-5.361-0.679-10.161-2.035-14.4-1.355-4.242-3.249-7.841-5.681-10.8-2.433-2.961-5.383-5.22-8.852-6.78s-7.318-2.34-11.544-2.34c-1.834 0-3.669 0.157-5.503 0.47-1.834 0.317-3.349 0.667-4.545 1.062v-26.4h-10.56v87.146c2.16 1.278 4.899 2.358 8.22 3.24 3.318 0.881 7.299 1.322 11.94 1.322 4.56 0 8.619-0.761 12.18-2.281 3.559-1.52 6.54-3.701 8.94-6.54 2.4-2.84 4.239-6.26 5.52-10.26 1.278-4 1.92-8.48 1.92-13.439" fill="#595759"></path></g><g transform="translate(1244.3 632.53)"><path d="m0 0c0 4.089-0.319 7.798-0.957 11.124-0.637 3.326-1.674 6.133-3.106 8.419-1.435 2.285-3.327 4.05-5.676 5.293-2.349 1.241-5.237 1.863-8.66 1.863-1.992 0-3.705-0.161-5.138-0.481-1.434-0.321-2.788-0.761-4.063-1.322v-50.873c1.035-0.401 2.208-0.742 3.523-1.023 1.314-0.281 2.769-0.42 4.363-0.42 6.531 0 11.449 2.403 14.755 7.215 3.305 4.81 4.959 11.546 4.959 20.205m10.56 0.54c0-5.361-0.679-10.161-2.035-14.4-1.355-4.242-3.249-7.841-5.681-10.8-2.433-2.961-5.383-5.22-8.852-6.78s-7.318-2.34-11.544-2.34c-1.834 0-3.669 0.157-5.503 0.47-1.834 0.317-3.349 0.667-4.545 1.062v-26.4h-10.56v87.146c2.16 1.278 4.899 2.358 8.22 3.24 3.318 0.881 7.299 1.322 11.94 1.322 4.56 0 8.619-0.761 12.18-2.281 3.559-1.52 6.54-3.701 8.94-6.54 2.4-2.84 4.239-6.26 5.52-10.26 1.278-4 1.92-8.48 1.92-13.439" fill="#595759"></path></g><path d="m1267.1 693.91h10.56v-94.2h-10.56z" fill="#595759"></path><g transform="translate(1309.7 573.91)"><path d="m0 0h-11.4l10.8 25.8-21.6 64.679h11.28l13.32-46.439c0.319-1.121 0.579-2.16 0.78-3.12 0.198-0.96 0.379-1.842 0.54-2.64 0.159-0.882 0.24-1.721 0.24-2.52h0.24c0.079 0.799 0.198 1.638 0.36 2.52 0.159 0.798 0.318 1.68 0.48 2.64 0.159 0.96 0.439 1.999 0.84 3.12l14.04 46.439h9.84z" fill="#595759"></path></g><g transform="translate(1416.4 599.77)"><path d="m0 0c-2.801-0.84-5.88-1.26-9.24-1.26-4.962 0-9.36 1.121-13.2 3.361-3.84 2.238-7.08 5.28-9.72 9.12s-4.641 8.34-6 13.5c-1.361 5.16-2.04 10.659-2.04 16.5 0 5.759 0.679 11.199 2.04 16.319 1.359 5.119 3.36 9.619 6 13.5 2.64 3.88 5.88 6.96 9.72 9.24 3.84 2.281 8.238 3.42 13.2 3.42 3.678 0 6.819-0.42 9.42-1.26 2.599-0.839 4.819-1.94 6.66-3.299l-2.64-6.481c-1.281 0.799-2.88 1.54-4.8 2.221-1.92 0.679-4.161 1.019-6.72 1.019-4.001 0-7.362-0.98-10.08-2.94-2.721-1.961-4.92-4.56-6.6-7.8-1.68-3.239-2.88-6.941-3.6-11.099-0.72-4.162-1.08-8.442-1.08-12.84 0-4.482 0.399-8.782 1.2-12.901 0.798-4.121 2.059-7.76 3.78-10.92 1.719-3.161 3.919-5.681 6.6-7.559 2.679-1.881 5.898-2.82 9.66-2.82 2.559 0 4.719 0.299 6.48 0.9 1.758 0.6 3.439 1.38 5.04 2.34l2.88-6.96c-1.841-1.362-4.161-2.46-6.96-3.301" fill="#b01e24"></path></g><g transform="translate(1468.9 599.71)"><path d="m0 0v45.84c0 1.68-0.201 3.279-0.6 4.8-0.401 1.519-1.101 2.88-2.1 4.08-1.001 1.2-2.361 2.139-4.08 2.82-1.721 0.679-3.861 1.02-6.42 1.02-2.4 0-4.601-0.24-6.6-0.72-2-0.48-4.001-1.32-6-2.52v-55.32h-10.56v94.2h10.56v-32.88c2.719 1.36 5.28 2.359 7.68 3 2.4 0.639 4.8 0.96 7.2 0.96 4.08 0 7.5-0.56 10.26-1.68 2.76-1.121 4.98-2.601 6.66-4.44 1.68-1.842 2.859-3.9 3.54-6.18 0.679-2.28 1.02-4.542 1.02-6.78v-46.2z" fill="#595759"></path></g><g transform="translate(1526.4 636.43)"><path d="m0 0c-4.08-0.479-7.74-1.121-10.98-1.92-3.24-0.801-5.96-1.881-8.16-3.24-2.201-1.361-3.9-3.119-5.1-5.279-1.2-2.161-1.8-4.881-1.8-8.161 0-4.721 1.359-8.1 4.08-10.139 2.719-2.04 6.48-3.061 11.28-3.061 2.079 0 4.039 0.18 5.88 0.54 1.84 0.361 3.439 0.901 4.8 1.62zm0.78-36.66c-3.641-0.84-7.74-1.26-12.3-1.26-8.48 0-14.7 1.699-18.66 5.101-3.96 3.399-5.94 8.058-5.94 13.979 0 4.32 0.939 7.9 2.82 10.74 1.879 2.839 4.459 5.179 7.74 7.02 3.279 1.84 7.099 3.259 11.46 4.261 4.359 0.999 9.06 1.739 14.1 2.219v3.96c0 4.959-1.34 8.34-4.02 10.14-2.681 1.8-6.101 2.7-10.26 2.7-3.12 0-6.041-0.461-8.76-1.38-2.721-0.921-5.001-1.82-6.84-2.7l-2.52 6.24c1.839 1.039 4.48 2.1 7.92 3.18 3.439 1.08 7.399 1.62 11.88 1.62 2.959 0 5.82-0.36 8.58-1.08s5.16-1.881 7.2-3.479c2.04-1.602 3.679-3.762 4.92-6.481 1.239-2.721 1.86-6.041 1.86-9.96v-41.519c-2.481-1.362-5.541-2.46-9.18-3.301" fill="#595759"></path></g><path d="m1551.1 664.39h10.56v-64.68h-10.56zm11.399 18.24c0-1.601-0.6-2.961-1.8-4.08-1.2-1.121-2.639-1.679-4.32-1.679-1.76 0-3.24 0.558-4.44 1.679-1.2 1.119-1.8 2.479-1.8 4.08 0 1.6 0.6 2.98 1.8 4.14 1.2 1.159 2.68 1.74 4.44 1.74 1.681 0 3.12-0.581 4.32-1.74 1.2-1.16 1.8-2.54 1.8-4.14" fill="#595759"></path><g transform="translate(1612.7 599.71)"><path d="m0 0v46.44c0 1.519-0.18 3.019-0.54 4.5-0.36 1.479-1.061 2.82-2.1 4.02-1.041 1.2-2.441 2.179-4.2 2.94-1.761 0.759-4.001 1.14-6.72 1.14-3.041 0-5.42-0.2-7.14-0.6-1.721-0.401-3.42-0.96-5.1-1.68v-56.76h-10.56v61.32c2.88 1.36 6.24 2.46 10.08 3.3s8.359 1.26 13.56 1.26c4.479 0 8.22-0.561 11.22-1.68 3-1.121 5.4-2.6 7.2-4.44 1.8-1.841 3.06-3.9 3.78-6.18s1.08-4.581 1.08-6.9v-46.68z" fill="#595759"></path></g><g transform="translate(1712.2 622.99)"><path d="m0 0c0-3.601-0.621-6.9-1.86-9.9-1.241-3-2.96-5.58-5.16-7.741-2.201-2.159-4.841-3.839-7.92-5.04-3.081-1.199-6.42-1.799-10.02-1.799-4.721 0-8.561 0.419-11.52 1.259-2.96 0.841-5.52 1.94-7.68 3.301l2.88 7.68c1.599-0.96 3.559-1.841 5.88-2.64 2.319-0.801 5.16-1.2 8.52-1.2 4.8 0 8.58 1.398 11.34 4.2 2.76 2.799 4.14 6.559 4.14 11.279 0 3.679-1.1 6.721-3.3 9.121-2.201 2.4-5.901 4.638-11.1 6.719-3.44 1.36-6.3 2.9-8.58 4.62s-4.08 3.54-5.4 5.46-2.241 3.901-2.76 5.941c-0.521 2.04-0.78 4.059-0.78 6.059 0 3.12 0.54 6.079 1.62 8.881 1.08 2.799 2.619 5.259 4.62 7.38 1.999 2.118 4.44 3.799 7.32 5.04 2.88 1.239 6.12 1.859 9.72 1.859 3.84 0 7.159-0.419 9.96-1.259 2.8-0.84 5.119-1.902 6.96-3.18l-2.64-6.96c-1.44 0.879-3.281 1.739-5.52 2.58-2.241 0.84-4.761 1.26-7.56 1.26-4.4 0-7.781-1.32-10.14-3.96-2.36-2.641-3.54-6.161-3.54-10.561 0-2.16 0.36-4.019 1.08-5.58 0.72-1.559 1.72-2.921 3-4.08 1.279-1.16 2.739-2.179 4.38-3.059 1.639-0.881 3.42-1.68 5.34-2.401 4.08-1.6 7.339-3.359 9.78-5.279 2.44-1.92 4.32-3.921 5.64-6 1.32-2.081 2.199-4.141 2.64-6.181 0.439-2.04 0.66-3.98 0.66-5.819" fill="#b01e24"></path></g><g transform="translate(1761.6 631.99)"><path d="m0 0c0 3.198-0.18 6.42-0.54 9.66-0.36 3.239-1.08 6.119-2.16 8.64-1.08 2.519-2.561 4.579-4.44 6.179-1.881 1.6-4.38 2.401-7.5 2.401s-5.64-0.78-7.56-2.34c-1.92-1.561-3.42-3.621-4.5-6.181s-1.8-5.44-2.16-8.639c-0.36-3.2-0.54-6.441-0.54-9.72 0-3.281 0.199-6.48 0.6-9.601 0.4-3.12 1.14-5.92 2.22-8.399 1.08-2.48 2.58-4.461 4.5-5.94 1.92-1.482 4.399-2.22 7.44-2.22 3.12 0 5.619 0.759 7.5 2.28 1.879 1.519 3.36 3.498 4.44 5.94 1.08 2.439 1.8 5.219 2.16 8.339 0.36 3.121 0.54 6.32 0.54 9.601m10.56 0c0-4.722-0.5-9.12-1.5-13.2-1.001-4.08-2.52-7.62-4.56-10.62s-4.641-5.361-7.8-7.08c-3.161-1.72-6.941-2.58-11.34-2.58-4.401 0-8.201 0.86-11.4 2.58-3.201 1.719-5.82 4.08-7.86 7.08s-3.56 6.54-4.56 10.62c-1.001 4.08-1.5 8.478-1.5 13.2 0 4.8 0.499 9.259 1.5 13.38 1 4.119 2.52 7.68 4.56 10.68s4.659 5.339 7.86 7.02c3.199 1.68 6.96 2.52 11.28 2.52 4.399 0 8.199-0.84 11.4-2.52 3.199-1.681 5.839-4.02 7.92-7.02 2.08-3 3.6-6.561 4.56-10.68 0.96-4.121 1.44-8.58 1.44-13.38" fill="#595759"></path></g><path d="m1784.4 693.91h10.56v-94.2h-10.56z" fill="#595759"></path><g transform="translate(1846.3 599.95)"><path d="m0 0c-3.761-1.039-8.28-1.561-13.56-1.561-8.081 0-13.92 1.9-17.52 5.701-3.6 3.798-5.4 8.94-5.4 15.42v44.879h10.56v-45.332c0-3.848 1.039-7.036 3.12-9.56 2.079-2.526 5.359-3.787 9.84-3.787 2.56 0 4.759 0.219 6.6 0.66 1.839 0.44 3.519 1.102 5.04 1.985v56.034h10.56v-60.839c-2.4-1.362-5.481-2.562-9.24-3.6" fill="#595759"></path></g><g transform="translate(1892.7 599.47)"><path d="m0 0c-0.921-0.24-2.061-0.359-3.42-0.359-2.961 0-5.46 0.479-7.5 1.439s-3.702 2.22-4.98 3.78c-1.281 1.56-2.202 3.3-2.76 5.22-0.561 1.92-0.84 3.88-0.84 5.88v42.36h-7.44v6.6h7.44v14.88l10.56 3.24v-18.12h11.28v-6.6h-11.28v-42.022c0-2.554 0.619-4.749 1.86-6.585 1.239-1.836 3.339-2.753 6.3-2.753 0.559 0 1.08 0.03 1.56 0.09s0.999 0.15 1.56 0.27v-6.719c-0.641-0.162-1.422-0.361-2.34-0.601" fill="#595759"></path></g><path d="m1905.8 664.39h10.56v-64.68h-10.56zm11.4 18.24c0-1.601-0.6-2.961-1.8-4.08-1.2-1.121-2.64-1.679-4.32-1.679-1.761 0-3.241 0.558-4.44 1.679-1.2 1.119-1.801 2.479-1.801 4.08 0 1.6 0.601 2.98 1.801 4.14 1.199 1.159 2.679 1.74 4.44 1.74 1.68 0 3.12-0.581 4.32-1.74 1.2-1.16 1.8-2.54 1.8-4.14" fill="#595759"></path><g transform="translate(1968.5 631.99)"><path d="m0 0c0 3.198-0.18 6.42-0.54 9.66-0.36 3.239-1.08 6.119-2.16 8.64-1.08 2.519-2.561 4.579-4.44 6.179-1.881 1.6-4.38 2.401-7.5 2.401s-5.64-0.78-7.56-2.34c-1.92-1.561-3.42-3.621-4.5-6.181s-1.8-5.44-2.16-8.639c-0.36-3.2-0.54-6.441-0.54-9.72 0-3.281 0.199-6.48 0.6-9.601 0.4-3.12 1.14-5.92 2.22-8.399 1.08-2.48 2.58-4.461 4.5-5.94 1.92-1.482 4.399-2.22 7.44-2.22 3.12 0 5.619 0.759 7.5 2.28 1.879 1.519 3.36 3.498 4.44 5.94 1.08 2.439 1.8 5.219 2.16 8.339 0.36 3.121 0.54 6.32 0.54 9.601m10.56 0c0-4.722-0.5-9.12-1.5-13.2-1.001-4.08-2.52-7.62-4.56-10.62s-4.641-5.361-7.8-7.08c-3.161-1.72-6.941-2.58-11.34-2.58-4.401 0-8.201 0.86-11.4 2.58-3.201 1.719-5.82 4.08-7.86 7.08s-3.56 6.54-4.56 10.62c-1.001 4.08-1.5 8.478-1.5 13.2 0 4.8 0.499 9.259 1.5 13.38 1 4.119 2.52 7.68 4.56 10.68s4.659 5.339 7.86 7.02c3.199 1.68 6.96 2.52 11.28 2.52 4.399 0 8.199-0.84 11.4-2.52 3.199-1.681 5.839-4.02 7.92-7.02 2.08-3 3.6-6.561 4.56-10.68 0.96-4.121 1.44-8.58 1.44-13.38" fill="#595759"></path></g><g transform="translate(2026.9 599.71)"><path d="m0 0v46.44c0 1.519-0.18 3.019-0.54 4.5-0.36 1.479-1.061 2.82-2.1 4.02-1.041 1.2-2.441 2.179-4.2 2.94-1.761 0.759-4.001 1.14-6.72 1.14-3.041 0-5.42-0.2-7.14-0.6-1.721-0.401-3.42-0.96-5.1-1.68v-56.76h-10.56v61.32c2.88 1.36 6.24 2.46 10.08 3.3s8.359 1.26 13.56 1.26c4.479 0 8.22-0.561 11.22-1.68 3-1.121 5.4-2.6 7.2-4.44 1.8-1.841 3.06-3.9 3.78-6.18s1.08-4.581 1.08-6.9v-46.68z" fill="#595759"></path></g><g transform="translate(2085.8 617.67)"><path d="m0 0c0-2.476-0.521-4.851-1.56-7.127-1.041-2.276-2.501-4.292-4.38-6.047-1.88-1.757-4.161-3.154-6.84-4.192-2.681-1.037-5.66-1.557-8.94-1.557-3.521 0-6.72 0.402-9.6 1.2-2.88 0.799-5.201 1.879-6.96 3.241l2.88 6.96c1.12-0.96 2.779-1.842 4.98-2.641 2.199-0.801 4.74-1.2 7.62-1.2 3.6 0 6.499 1.08 8.7 3.24 2.2 2.16 3.3 4.8 3.3 7.92 0 3.36-0.881 5.92-2.64 7.681-1.761 1.758-4.44 3.318-8.04 4.679-3.12 1.2-5.681 2.499-7.68 3.9-2.001 1.399-3.54 2.88-4.62 4.44s-1.821 3.159-2.22 4.8c-0.401 1.639-0.6 3.3-0.6 4.98 0 2.4 0.459 4.68 1.38 6.84 0.919 2.16 2.22 4.039 3.9 5.64 1.68 1.599 3.699 2.88 6.06 3.84 2.359 0.96 5.02 1.44 7.98 1.44 3.36 0 6.3-0.469 8.82-1.404 2.52-0.936 4.62-1.973 6.3-3.109l-2.76-6.407c-0.96 0.72-2.36 1.5-4.2 2.34-1.841 0.84-4.041 1.26-6.6 1.26-3.6 0-6.3-0.999-8.1-2.994-1.8-1.997-2.7-4.392-2.7-7.185 0-3.114 1.02-5.529 3.06-7.247s4.62-3.175 7.74-4.371c3.12-1.198 5.7-2.516 7.74-3.952 2.04-1.437 3.66-2.953 4.86-4.551s2.019-3.273 2.46-5.028c0.439-1.757 0.66-3.554 0.66-5.389" fill="#595759"></path></g></g></g></g></svg> 